<?xml version="1.0" encoding="utf-8"?>
<!-- Generator: Adobe Illustrator 22.0.0, SVG Export Plug-In . SVG Version: 6.00 Build 0)  -->
<svg version="1.1" id="Layer_1" xmlns="http://www.w3.org/2000/svg" xmlns:xlink="http://www.w3.org/1999/xlink" x="0px" y="0px"
	 viewBox="0 0 244.3 211.7" style="enable-background:new 0 0 244.3 211.7;" xml:space="preserve">
<style type="text/css">
	.st0{fill:#2C938C;}
</style>
<path class="st0" d="M148.9,126.2C105.9,90.1,43.6,37.4,1.9,2.3c0,70.7,0,140.3,0,210.1c6.9,0,13.5,0,21.1,0c0-54.3,0-108.3,0-163.2
	c30,25.2,81,67.5,112.8,94.2c-5.5,7.2-11.1,14.5-16.6,21.7c-23.4-19.6-46.4-38.9-70.3-58.9c0,9.1-0.2,16.9,0.1,24.7
	c0.1,2.1,1.3,4.8,2.9,6.2c10.4,9.1,21.1,17.8,31.7,26.7c13.1,11,26.3,22,39.7,33.2c32.9-43.6,65.5-87,98.2-130.4
	c0.4,0.2,0.7,0.3,1.1,0.5c0,48.4,0,96.8,0,145.4c7.1,0,13.7,0,20.6,0c0-69.8,0-139.3,0-209.8C211.6,44.2,180.3,85.2,148.9,126.2z"/>
</svg>
